<svg width="37" height="35" viewBox="0 0 37 35" fill="none" xmlns="http://www.w3.org/2000/svg">
<g filter="url(#filter0_d_36_13)">
<rect width="35" height="33" rx="7.2" fill="url(#paint0_linear_36_13)" shape-rendering="crispEdges"/>
<rect x="1.5" y="1.5" width="32" height="30" rx="5.7" stroke="black" stroke-width="3" shape-rendering="crispEdges"/>
<path d="M18.9781 21.7811C18.9781 22.2319 18.799 22.6643 18.4802 22.9831C18.1614 23.3019 17.729 23.4811 17.2781 23.4811C16.8273 23.4811 16.3949 23.3019 16.076 22.9831C15.7572 22.6643 15.5781 22.2319 15.5781 21.7811C15.5781 21.3302 15.7572 20.8978 16.076 20.579C16.3949 20.2602 16.8273 20.0811 17.2781 20.0811C17.729 20.0811 18.1614 20.2602 18.4802 20.579C18.799 20.8978 18.9781 21.3302 18.9781 21.7811Z" fill="black"/>
<path fill-rule="evenodd" clip-rule="evenodd" d="M17.2535 12.0503C16.684 12.0503 16.1952 12.2203 15.851 12.4634C15.5195 12.698 15.3554 12.9708 15.3078 13.2063C15.2375 13.521 15.0466 13.7956 14.7761 13.9712C14.5056 14.1468 14.1771 14.2094 13.861 14.1456C13.5449 14.0817 13.2664 13.8965 13.0853 13.6297C12.9041 13.3629 12.8348 13.0357 12.8921 12.7184C13.0851 11.7613 13.6784 10.9801 14.4298 10.4489C15.2118 9.89637 16.2029 9.58527 17.2535 9.58527C19.4269 9.58527 21.6803 11.0388 21.6803 13.3729C21.6803 14.7244 20.877 15.8175 19.8366 16.455C19.5578 16.6256 19.2225 16.6785 18.9047 16.602C18.5868 16.5255 18.3124 16.3258 18.1417 16.047C17.9711 15.7681 17.9182 15.4329 17.9947 15.115C18.0712 14.7972 18.2709 14.5227 18.5497 14.3521C19.0342 14.0554 19.2153 13.6772 19.2153 13.3729C19.2153 12.885 18.6075 12.0503 17.2535 12.0503Z" fill="black"/>
<path fill-rule="evenodd" clip-rule="evenodd" d="M17.2535 15.3355C17.9335 15.3355 18.486 15.8863 18.486 16.568V17.8447C18.486 18.1716 18.3561 18.4851 18.125 18.7162C17.8939 18.9474 17.5804 19.0772 17.2535 19.0772C16.9266 19.0772 16.6131 18.9474 16.382 18.7162C16.1508 18.4851 16.021 18.1716 16.021 17.8447V16.568C16.021 15.888 16.5726 15.3355 17.2535 15.3355Z" fill="black"/>
<path fill-rule="evenodd" clip-rule="evenodd" d="M20.2531 14.7711C20.3364 14.9101 20.3914 15.064 20.4151 15.2243C20.4388 15.3845 20.4307 15.5479 20.3912 15.705C20.3518 15.8621 20.2817 16.0098 20.1851 16.1398C20.0885 16.2698 19.9672 16.3795 19.8281 16.4626L17.8867 17.6246C17.6063 17.7925 17.2706 17.8422 16.9535 17.7626C16.6365 17.6831 16.364 17.4808 16.1961 17.2004C16.0281 16.92 15.9784 16.5843 16.058 16.2672C16.1375 15.9502 16.3398 15.6777 16.6202 15.5098L18.5625 14.347C18.7014 14.2638 18.8553 14.2089 19.0154 14.1853C19.1756 14.1616 19.3388 14.1698 19.4958 14.2092C19.6528 14.2487 19.8005 14.3187 19.9304 14.4153C20.0604 14.5118 20.17 14.6322 20.2531 14.7711Z" fill="black"/>
</g>
<defs>
<filter id="filter0_d_36_13" x="0" y="0" width="36.8" height="34.8" filterUnits="userSpaceOnUse" color-interpolation-filters="sRGB">
<feFlood flood-opacity="0" result="BackgroundImageFix"/>
<feColorMatrix in="SourceAlpha" type="matrix" values="0 0 0 0 0 0 0 0 0 0 0 0 0 0 0 0 0 0 127 0" result="hardAlpha"/>
<feOffset dx="1.8" dy="1.8"/>
<feComposite in2="hardAlpha" operator="out"/>
<feColorMatrix type="matrix" values="0 0 0 0 0 0 0 0 0 0 0 0 0 0 0 0 0 0 1 0"/>
<feBlend mode="normal" in2="BackgroundImageFix" result="effect1_dropShadow_36_13"/>
<feBlend mode="normal" in="SourceGraphic" in2="effect1_dropShadow_36_13" result="shape"/>
</filter>
<linearGradient id="paint0_linear_36_13" x1="6.5" y1="2.36503e-07" x2="28.5" y2="29" gradientUnits="userSpaceOnUse">
<stop stop-color="#14AA02"/>
<stop offset="1" stop-color="#55C800"/>
</linearGradient>
</defs>
</svg>
