<svg width="68" height="64" viewBox="0 0 68 64" fill="none" xmlns="http://www.w3.org/2000/svg">
<g filter="url(#filter0_d_14_99)">
<rect width="66" height="62" rx="7.2" fill="url(#paint0_linear_14_99)" shape-rendering="crispEdges"/>
<rect x="1.5" y="1.5" width="63" height="59" rx="5.7" stroke="black" stroke-width="3" shape-rendering="crispEdges"/>
<path d="M42.55 46.15C42.1833 46.3833 41.8167 46.6 41.45 46.8C41.0833 47 40.7 47.1833 40.3 47.35C39.8 47.5833 39.292 47.5833 38.776 47.35C38.26 47.1167 37.9013 46.7333 37.7 46.2C37.5 45.7 37.5253 45.2087 37.776 44.726C38.0267 44.2433 38.4013 43.8847 38.9 43.65C39.0333 43.5833 39.1587 43.5167 39.276 43.45C39.3933 43.3833 39.518 43.3167 39.65 43.25L33 36.6V42.15C33 43.05 32.592 43.6753 31.776 44.026C30.96 44.3767 30.2347 44.2347 29.6 43.6L23 37H17C16.4333 37 15.9587 36.808 15.576 36.424C15.1933 36.04 15.0013 35.5653 15 35V27C15 26.4333 15.192 25.9587 15.576 25.576C15.96 25.1933 16.4347 25.0013 17 25H21.4L13.2 16.8C12.8333 16.4333 12.65 15.9667 12.65 15.4C12.65 14.8333 12.8333 14.3667 13.2 14C13.5667 13.6333 14.0333 13.45 14.6 13.45C15.1667 13.45 15.6333 13.6333 16 14L50 48C50.3667 48.3667 50.55 48.8333 50.55 49.4C50.55 49.9667 50.3667 50.4333 50 50.8C49.6333 51.1667 49.1667 51.35 48.6 51.35C48.0333 51.35 47.5667 51.1667 47.2 50.8L42.55 46.15ZM47 30.95C47 28.1833 46.2667 25.6587 44.8 23.376C43.3333 21.0933 41.3667 19.3847 38.9 18.25C38.4 18.0167 38.0333 17.6587 37.8 17.176C37.5667 16.6933 37.5333 16.2013 37.7 15.7C37.9 15.1667 38.2587 14.7833 38.776 14.55C39.2933 14.3167 39.818 14.3167 40.35 14.55C43.5833 15.9833 46.1667 18.1667 48.1 21.1C50.0333 24.0333 51 27.3167 51 30.95C51 32.05 50.9 33.142 50.7 34.226C50.5 35.31 50.2167 36.3513 49.85 37.35C49.5833 38.0833 49.1753 38.542 48.626 38.726C48.0767 38.91 47.568 38.918 47.1 38.75C46.632 38.582 46.2573 38.282 45.976 37.85C45.6947 37.418 45.686 36.918 45.95 36.35C46.3167 35.4833 46.5833 34.6087 46.75 33.726C46.9167 32.8433 47 31.918 47 30.95ZM38.55 23.85C39.65 24.55 40.5 25.6 41.1 27C41.7 28.4 42 29.7333 42 31V31.5C42 31.6667 41.9833 31.8333 41.95 32C41.8833 32.4333 41.65 32.7167 41.25 32.85C40.85 32.9833 40.4833 32.8833 40.15 32.55L37.6 30C37.4 29.8 37.25 29.5753 37.15 29.326C37.05 29.0767 37 28.818 37 28.55V24.7C37 24.3 37.1753 24.0087 37.526 23.826C37.8767 23.6433 38.218 23.6513 38.55 23.85ZM28.5 20.9C28.3 20.7 28.2 20.4667 28.2 20.2C28.2 19.9333 28.3 19.7 28.5 19.5L29.6 18.4C30.2333 17.7667 30.958 17.6247 31.774 17.974C32.59 18.3233 32.9987 18.9487 33 19.85V23C33 23.4667 32.8 23.7833 32.4 23.95C32 24.1167 31.6333 24.0333 31.3 23.7L28.5 20.9Z" fill="white"/>
</g>
<defs>
<filter id="filter0_d_14_99" x="0" y="0" width="67.8" height="63.8" filterUnits="userSpaceOnUse" color-interpolation-filters="sRGB">
<feFlood flood-opacity="0" result="BackgroundImageFix"/>
<feColorMatrix in="SourceAlpha" type="matrix" values="0 0 0 0 0 0 0 0 0 0 0 0 0 0 0 0 0 0 127 0" result="hardAlpha"/>
<feOffset dx="1.8" dy="1.8"/>
<feComposite in2="hardAlpha" operator="out"/>
<feColorMatrix type="matrix" values="0 0 0 0 0 0 0 0 0 0 0 0 0 0 0 0 0 0 1 0"/>
<feBlend mode="normal" in2="BackgroundImageFix" result="effect1_dropShadow_14_99"/>
<feBlend mode="normal" in="SourceGraphic" in2="effect1_dropShadow_14_99" result="shape"/>
</filter>
<linearGradient id="paint0_linear_14_99" x1="12.2571" y1="4.44338e-07" x2="53.5493" y2="54.6312" gradientUnits="userSpaceOnUse">
<stop stop-color="#14AA02"/>
<stop offset="1" stop-color="#55C800"/>
</linearGradient>
</defs>
</svg>