<svg width="37" height="35" viewBox="0 0 37 35" fill="none" xmlns="http://www.w3.org/2000/svg">
<g filter="url(#filter0_d_36_20)">
<rect width="35" height="33" rx="7.2" fill="url(#paint0_linear_36_20)" shape-rendering="crispEdges"/>
<rect x="1.5" y="1.5" width="32" height="30" rx="5.7" stroke="black" stroke-width="3" shape-rendering="crispEdges"/>
<path d="M11 27C10.45 27 9.97933 26.8043 9.588 26.413C9.19667 26.0217 9.00067 25.5507 9 25V9C9 8.45 9.196 7.97933 9.588 7.588C9.98 7.19667 10.4507 7.00067 11 7H23C23.55 7 24.021 7.196 24.413 7.588C24.805 7.98 25.0007 8.45067 25 9V25C25 25.55 24.8043 26.021 24.413 26.413C24.0217 26.805 23.5507 27.0007 23 27H11ZM11 25H23V9H21V16L18.5 14.5L16 16V9H11V25Z" fill="black"/>
</g>
<defs>
<filter id="filter0_d_36_20" x="0" y="0" width="36.8" height="34.8" filterUnits="userSpaceOnUse" color-interpolation-filters="sRGB">
<feFlood flood-opacity="0" result="BackgroundImageFix"/>
<feColorMatrix in="SourceAlpha" type="matrix" values="0 0 0 0 0 0 0 0 0 0 0 0 0 0 0 0 0 0 127 0" result="hardAlpha"/>
<feOffset dx="1.8" dy="1.8"/>
<feComposite in2="hardAlpha" operator="out"/>
<feColorMatrix type="matrix" values="0 0 0 0 0 0 0 0 0 0 0 0 0 0 0 0 0 0 1 0"/>
<feBlend mode="normal" in2="BackgroundImageFix" result="effect1_dropShadow_36_20"/>
<feBlend mode="normal" in="SourceGraphic" in2="effect1_dropShadow_36_20" result="shape"/>
</filter>
<linearGradient id="paint0_linear_36_20" x1="6.5" y1="2.36503e-07" x2="28.5" y2="29" gradientUnits="userSpaceOnUse">
<stop stop-color="#14AA02"/>
<stop offset="1" stop-color="#55C800"/>
</linearGradient>
</defs>
</svg>
