<svg width="49" height="49" viewBox="0 0 49 49" fill="none" xmlns="http://www.w3.org/2000/svg">
<circle cx="24.5" cy="24.5" r="22.5" fill="#D3D1D1" stroke="black" stroke-width="4"/>
<path d="M39.8524 29.1942C39.7114 27.3182 38.9122 25.5523 37.5958 24.2083C36.2795 22.8642 34.5306 22.0284 32.658 21.8484C32.5379 21.5942 32.4049 21.3464 32.2595 21.1059C33.1019 19.2524 33.2021 17.1467 32.5396 15.2216C31.877 13.2965 30.5021 11.6984 28.6975 10.7559L28.6789 10.7452C28.6302 10.7201 28.5796 10.6988 28.5275 10.6815C28.274 10.5975 27.9981 10.6121 27.7549 10.7223C27.5116 10.8326 27.3188 11.0304 27.2148 11.2764C27.1108 11.5224 27.1033 11.7985 27.1937 12.0498C27.2841 12.3011 27.4659 12.5091 27.7027 12.6325H27.712C27.8688 12.7241 30.3125 14.0735 30.3125 17.0312C30.3131 17.5966 30.2234 18.1583 30.0469 18.6954C28.5867 17.6134 26.8174 17.0294 25 17.0294C23.1826 17.0294 21.4134 17.6134 19.9531 18.6954C19.7766 18.1583 19.6869 17.5966 19.6875 17.0312C19.6875 14.0629 22.1485 12.7135 22.2973 12.6351C22.5432 12.5035 22.7274 12.2804 22.8103 12.0141C22.8931 11.7478 22.8679 11.4596 22.7402 11.2117C22.6124 10.9637 22.3922 10.776 22.1272 10.689C21.8622 10.602 21.5736 10.6227 21.3238 10.7466L21.3038 10.7572C19.4976 11.7006 18.1214 13.3 17.4582 15.2268C16.7949 17.1536 16.895 19.2613 17.7378 21.1166C17.5917 21.3556 17.4563 21.6026 17.3394 21.8563C15.4672 22.0375 13.7191 22.8739 12.4033 24.2181C11.0876 25.5623 10.2887 27.3279 10.1476 29.2035C10.1268 29.4184 10.1206 29.6345 10.129 29.8503C10.152 30.1216 10.2782 30.3737 10.4816 30.5546C10.6851 30.7356 10.9502 30.8315 11.2223 30.8226C11.4944 30.8138 11.7527 30.7008 11.944 30.507C12.1352 30.3132 12.2447 30.0534 12.25 29.7812C12.25 29.6006 12.2593 29.4213 12.2752 29.25C12.3722 28.4199 12.8145 26.7159 14.7509 25.599C15.2976 25.282 15.8968 25.0656 16.5199 24.9601C16.5067 25.1501 16.4987 25.3426 16.4987 25.5366C16.5004 27.2048 16.9922 28.8357 17.9131 30.2267C18.834 31.6177 20.1433 32.7075 21.6784 33.3605C21.2454 33.9465 20.6961 34.4367 20.0647 34.8002C17.532 36.2612 15.1666 34.848 14.966 34.7232L14.9501 34.7126C14.7138 34.5633 14.4281 34.5132 14.1551 34.5731C13.8821 34.633 13.6437 34.798 13.4915 35.0325C13.3394 35.2669 13.2857 35.5519 13.3422 35.8256C13.3987 36.0994 13.5607 36.3398 13.7933 36.4949L13.8252 36.5148C14.7103 37.0768 15.6978 37.4583 16.7308 37.6376C17.7638 37.8169 18.8221 37.7904 19.8448 37.5597C20.8676 37.3289 21.8347 36.8984 22.6907 36.2929C23.5466 35.6874 24.2745 34.9188 24.8327 34.0312H25.1674C25.7262 34.9182 26.4546 35.6862 27.3107 36.2912C28.1669 36.8962 29.134 37.3263 30.1567 37.5569C31.1793 37.7875 32.2374 37.814 33.2704 37.635C34.3033 37.4559 35.2908 37.0748 36.1762 36.5135L36.2067 36.4936C36.4393 36.3385 36.6014 36.0981 36.6578 35.8243C36.7143 35.5506 36.6607 35.2656 36.5085 35.0312C36.3563 34.7967 36.1179 34.6317 35.8449 34.5718C35.5719 34.5119 35.2863 34.562 35.0499 34.7112L35.034 34.7219C34.8335 34.8467 32.4681 36.2612 29.9353 34.7989C29.303 34.4339 28.7531 33.9419 28.3203 33.3539C29.8552 32.7009 31.1644 31.6114 32.0852 30.2206C33.0061 28.8299 33.4981 27.1992 33.5 25.5312C33.5 25.3373 33.4907 25.1461 33.4788 24.9562C34.1023 25.0611 34.7019 25.277 35.2492 25.5937C37.1709 26.7026 37.6212 28.3907 37.7235 29.2221C37.7407 29.4067 37.75 29.5926 37.75 29.7812C37.746 29.9208 37.7695 30.0597 37.8192 30.1902C37.8689 30.3206 37.9438 30.44 38.0396 30.5415C38.1354 30.643 38.2503 30.7246 38.3777 30.7817C38.5051 30.8388 38.6424 30.8703 38.782 30.8743C38.9215 30.8783 39.0604 30.8548 39.1909 30.8051C39.3213 30.7554 39.4407 30.6805 39.5422 30.5847C39.6437 30.4889 39.7253 30.374 39.7824 30.2466C39.8395 30.1192 39.871 29.9819 39.875 29.8423C39.8822 29.626 39.8746 29.4095 39.8524 29.1942ZM22.5735 31.4255C21.4063 30.9435 20.4082 30.1263 19.7054 29.0772C19.0026 28.028 18.6266 26.794 18.625 25.5312C18.625 25.3626 18.6343 25.1952 18.6476 25.0292L18.7804 25.0624C20.1162 25.4209 21.2595 26.2863 21.9673 27.4745C22.6751 28.6627 22.8917 30.0801 22.5709 31.4255H22.5735ZM25 25.8115L24.9854 25.7862H25.0146L25 25.8115ZM25 22.3437C24.2483 22.3441 23.505 22.1846 22.8197 21.8757C22.1343 21.5668 21.5225 21.1156 21.0249 20.5521C22.1523 19.6485 23.5539 19.1561 24.9987 19.1561C26.4435 19.1561 27.8451 19.6485 28.9724 20.5521C28.4753 21.1154 27.8639 21.5665 27.179 21.8754C26.4941 22.1843 25.7513 22.3439 25 22.3437ZM27.4292 31.4241C27.2665 30.7467 27.239 30.0438 27.3482 29.3557C27.4575 28.6677 27.7014 28.0079 28.0659 27.4142C28.4304 26.8204 28.9085 26.3044 29.4726 25.8956C30.0368 25.4869 30.676 25.1933 31.3538 25.0319C31.367 25.1966 31.375 25.3626 31.375 25.5312C31.3734 26.7937 30.9976 28.0274 30.295 29.0763C29.5925 30.1252 28.5947 30.9422 27.4278 31.4241H27.4292Z" fill="black"/>
</svg>
