<svg width="49" height="49" viewBox="0 0 49 49" fill="none" xmlns="http://www.w3.org/2000/svg">
<circle cx="24.5" cy="24.5" r="22.5" fill="#B5FF78" stroke="black" stroke-width="4"/>
<path d="M36.677 13.3218C36.6618 13.0619 36.5517 12.8166 36.3676 12.6324C36.1835 12.4483 35.9382 12.3382 35.6782 12.323C25.5672 11.7294 17.4683 14.7734 14.0152 20.4844C12.8183 22.438 12.2285 24.703 12.3205 26.9922C12.3806 28.4561 12.6784 29.9005 13.2024 31.2688C13.2332 31.353 13.2847 31.428 13.3524 31.4869C13.42 31.5458 13.5014 31.5866 13.589 31.6056C13.6766 31.6245 13.7676 31.621 13.8535 31.5953C13.9394 31.5696 14.0174 31.5226 14.0803 31.4587L25.3693 19.997C25.468 19.8982 25.5852 19.8199 25.7142 19.7665C25.8432 19.7131 25.9814 19.6856 26.121 19.6856C26.2606 19.6856 26.3989 19.7131 26.5279 19.7665C26.6568 19.8199 26.774 19.8982 26.8728 19.997C26.9715 20.0957 27.0498 20.2129 27.1032 20.3418C27.1566 20.4708 27.1841 20.6091 27.1841 20.7487C27.1841 20.8883 27.1566 21.0265 27.1032 21.1555C27.0498 21.2845 26.9715 21.4017 26.8728 21.5004L14.5358 34.0233L12.6512 35.9079C12.4552 36.0987 12.3382 36.3563 12.3234 36.6294C12.3087 36.9026 12.3972 37.1713 12.5715 37.3821C12.667 37.4926 12.7842 37.5823 12.9158 37.6455C13.0475 37.7087 13.1907 37.7441 13.3367 37.7495C13.4826 37.7548 13.6281 37.73 13.764 37.6767C13.9 37.6233 14.0234 37.5425 14.1267 37.4392L16.3567 35.2093C18.2346 36.1177 20.1299 36.6131 22.0092 36.6795C22.157 36.6848 22.3045 36.6875 22.4514 36.6875C24.5916 36.693 26.6911 36.1035 28.5156 34.9848C34.2266 31.5317 37.272 23.4341 36.677 13.3218Z" fill="#1CBF21"/>
</svg>
