<svg width="68" height="64" viewBox="0 0 68 64" fill="none" xmlns="http://www.w3.org/2000/svg">
<g filter="url(#filter0_d_14_53)">
<rect width="66" height="62" rx="7.2" fill="url(#paint0_linear_14_53)" shape-rendering="crispEdges"/>
<rect x="1.5" y="1.5" width="63" height="59" rx="5.7" stroke="black" stroke-width="3" shape-rendering="crispEdges"/>
<g clip-path="url(#clip0_14_53)">
<path d="M39.6122 39.8611C39.345 39.8647 39.084 39.7806 38.8692 39.6217C38.6544 39.4629 38.4975 39.238 38.4226 38.9815C38.3478 38.725 38.359 38.451 38.4546 38.2015C38.5503 37.952 38.7251 37.7407 38.9522 37.6C40.0644 36.9058 40.9777 35.9354 41.6034 34.7833C42.229 33.6312 42.5455 32.3367 42.5222 31.0259C42.4988 29.7151 42.1363 28.4327 41.4699 27.3037C40.8036 26.1746 39.8562 25.2374 38.72 24.5834C38.5739 24.5069 38.4448 24.4018 38.3405 24.2742C38.2361 24.1466 38.1586 23.9992 38.1127 23.8409C38.0668 23.6826 38.0533 23.5166 38.0732 23.353C38.0931 23.1893 38.1459 23.0314 38.2284 22.8887C38.3109 22.746 38.4214 22.6214 38.5532 22.5225C38.6851 22.4236 38.8356 22.3524 38.9957 22.3132C39.1558 22.274 39.3222 22.2676 39.4849 22.2943C39.6475 22.3211 39.8031 22.3805 39.9422 22.4689C41.4381 23.3363 42.6845 24.5756 43.5604 26.0665C44.4364 27.5574 44.9122 29.2494 44.9417 30.9783C44.9712 32.7072 44.5534 34.4145 43.7289 35.9344C42.9043 37.4543 41.701 38.7354 40.2355 39.6534C40.0506 39.7782 39.8351 39.8501 39.6122 39.8611Z" fill="white"/>
<path d="M42.3133 47.1089C42.0396 47.1073 41.7744 47.0139 41.5602 46.8436C41.3459 46.6733 41.195 46.436 41.1316 46.1698C41.0682 45.9036 41.096 45.6237 41.2105 45.3752C41.3251 45.1266 41.5197 44.9237 41.7633 44.7989C44.3273 43.5356 46.4832 41.5751 47.9838 39.1423C49.4843 36.7096 50.2688 33.9031 50.2471 31.0449C50.2254 28.1866 49.3985 25.3924 47.8611 22.9827C46.3238 20.573 44.1384 18.6454 41.5555 17.4211C41.4065 17.3542 41.2725 17.258 41.1612 17.1383C41.05 17.0187 40.964 16.8779 40.9081 16.7244C40.8522 16.5709 40.8277 16.4077 40.8359 16.2446C40.8442 16.0814 40.8851 15.9215 40.9561 15.7745C41.0272 15.6274 41.1271 15.496 41.2498 15.3882C41.3725 15.2804 41.5156 15.1982 41.6707 15.1466C41.8257 15.095 41.9894 15.0751 42.1523 15.0879C42.3152 15.1007 42.4738 15.146 42.6189 15.2211C45.619 16.6375 48.1592 18.8707 49.948 21.6648C51.7368 24.4588 52.7019 27.7005 52.7325 31.018C52.7632 34.3355 51.8581 37.5945 50.1211 40.4211C48.3842 43.2477 45.8857 45.5274 42.9122 46.9989C42.7251 47.0855 42.519 47.1234 42.3133 47.1089Z" fill="white"/>
<path d="M33.4033 13.8889L22.0856 23.6667H14.7522C14.4281 23.6667 14.1172 23.7954 13.888 24.0247C13.6588 24.2539 13.53 24.5647 13.53 24.8889V37.0133C13.53 37.3375 13.6588 37.6484 13.888 37.8776C14.1172 38.1068 14.4281 38.2356 14.7522 38.2356H21.8533L33.4156 48.3067C33.5904 48.4604 33.8056 48.561 34.0357 48.5966C34.2659 48.6321 34.5014 48.6012 34.7145 48.5075C34.9277 48.4138 35.1096 48.2611 35.2389 48.0675C35.3682 47.8738 35.4395 47.6472 35.4444 47.4144V14.7689C35.4393 14.5348 35.3669 14.3071 35.2361 14.113C35.1053 13.9188 34.9214 13.7663 34.7064 13.6736C34.4914 13.5809 34.2543 13.5519 34.0233 13.5901C33.7923 13.6282 33.5771 13.732 33.4033 13.8889Z" fill="white"/>
</g>
</g>
<defs>
<filter id="filter0_d_14_53" x="0" y="0" width="67.8" height="63.8" filterUnits="userSpaceOnUse" color-interpolation-filters="sRGB">
<feFlood flood-opacity="0" result="BackgroundImageFix"/>
<feColorMatrix in="SourceAlpha" type="matrix" values="0 0 0 0 0 0 0 0 0 0 0 0 0 0 0 0 0 0 127 0" result="hardAlpha"/>
<feOffset dx="1.8" dy="1.8"/>
<feComposite in2="hardAlpha" operator="out"/>
<feColorMatrix type="matrix" values="0 0 0 0 0 0 0 0 0 0 0 0 0 0 0 0 0 0 1 0"/>
<feBlend mode="normal" in2="BackgroundImageFix" result="effect1_dropShadow_14_53"/>
<feBlend mode="normal" in="SourceGraphic" in2="effect1_dropShadow_14_53" result="shape"/>
</filter>
<linearGradient id="paint0_linear_14_53" x1="12.2571" y1="4.44338e-07" x2="53.5493" y2="54.6312" gradientUnits="userSpaceOnUse">
<stop stop-color="#14AA02"/>
<stop offset="1" stop-color="#55C800"/>
</linearGradient>
<clipPath id="clip0_14_53">
<rect width="44" height="44" fill="white" transform="translate(11 9)"/>
</clipPath>
</defs>
</svg>
