<svg width="49" height="49" viewBox="0 0 49 49" fill="none" xmlns="http://www.w3.org/2000/svg">
<circle cx="24.5" cy="24.5" r="22.5" fill="#B8DEFF" stroke="black" stroke-width="4"/>
<path d="M24.935 11.655C24.3966 11.1875 23.5891 11.1875 23.0508 11.655C16.1375 17.7467 12.6666 23.045 12.6666 27.55C12.6666 34.605 18.05 39.1667 24 39.1667C29.95 39.1667 35.3333 34.605 35.3333 27.55C35.3333 23.045 31.8625 17.7467 24.935 11.655ZM18.0925 27.8333C18.6166 27.8333 19.0416 28.2017 19.1408 28.7117C19.7216 31.8567 22.3708 32.9333 24.2975 32.7775C24.9066 32.7492 25.4166 33.2308 25.4166 33.84C25.4166 34.4067 24.9633 34.8742 24.3966 34.9025C21.3791 35.0867 17.8516 33.3583 17.0441 29.0658C17.0195 28.914 17.0282 28.7585 17.0695 28.6103C17.1109 28.4621 17.1839 28.3247 17.2836 28.2074C17.3833 28.0902 17.5073 27.9961 17.6469 27.9315C17.7866 27.8669 17.9386 27.8334 18.0925 27.8333Z" fill="#26AAF0"/>
</svg>
